<svg xmlns="http://www.w3.org/2000/svg" viewBox="0 0 512 512" width="100%" height="100%">
  <defs>
    <linearGradient id="gradient" x1="0%" y1="0%" x2="100%" y2="100%">
      <stop offset="0%" stop-color="#9f1239" />
      <stop offset="60%" stop-color="#ea580c" />
      <stop offset="100%" stop-color="#eab308" />
    </linearGradient>
  </defs>
  <rect width="512" height="512" fill="#0c0a09" />
  <g transform="translate(32, 32) scale(0.875)">
    <!-- Book Outline -->
    <path d="M128 360c0-26.5 21.5-48 48-48h208v96H176c-26.5 0-48-21.5-48-48z" fill="url(#gradient)" opacity="0.15"/>
    <path d="M144 384c0 17.7 14.3 32 32 32h208V128H176c-35.3 0-64 28.7-64 64v160c0 17.7 14.3 32 32 32z" fill="none" stroke="url(#gradient)" stroke-width="28" stroke-linecap="round" stroke-linejoin="round"/>
    <path d="M176 128h192v256H176c-17.7 0-32-14.3-32-32V160c0-17.7 14.3-32 32-32z" fill="url(#gradient)" opacity="0.8"/>
    <path d="M240 180h80M240 240h80M240 300h50" fill="none" stroke="#ffffff" stroke-width="16" stroke-linecap="round" stroke-linejoin="round" opacity="0.9"/>
    <!-- Sparkles -->
    <path d="M380 140l8-8 8 8-8 8zm-40-60l6-6 6 6-6 6zm60 160l4-4 4 4-4 4z" fill="#facc15" />
  </g>
</svg>
